<svg version="1.1" xmlns="http://www.w3.org/2000/svg" xmlns:xlink="http://www.w3.org/1999/xlink" width="16" height="16" viewBox="0,0,256,256"><g fill="#0d6efd" fill-rule="nonzero" stroke="none" stroke-width="1" stroke-linecap="butt" stroke-linejoin="miter" stroke-miterlimit="10" stroke-dasharray="" stroke-dashoffset="0" font-family="none" font-weight="none" font-size="none" text-anchor="none" style="mix-blend-mode: normal"><g transform="scale(16,16)"><path d="M6.321,6.016c-0.27,-0.18 -1.166,-0.802 -1.166,-0.802c0.756,-1.081 1.753,-1.502 3.132,-1.502c0.975,0 1.803,0.327 2.394,0.948c0.591,0.621 0.928,1.509 1.005,2.644c0.328,0.138 0.62967,0.29933 0.905,0.484c1.109,0.745 1.719,1.86 1.719,3.137c0,2.716 -2.226,5.075 -6.256,5.075c-3.46,0 -7.054,-2.013 -7.054,-8.006c0,-5.96 3.482,-7.994 7.044,-7.994c1.646,0 5.506,0.243 6.956,5.036l-1.36,0.353c-1.124,-3.415 -3.477,-3.959 -5.634,-3.959c-3.565,0 -5.582,2.171 -5.582,6.79c0,4.143 2.254,6.343 5.63,6.343c2.777,0 4.847,-1.443 4.847,-3.556c0,-1.438 -1.208,-2.127 -1.27,-2.127c-0.236,1.234 -0.868,3.31 -3.644,3.31c-1.618,0 -3.013,-1.118 -3.013,-2.582c0,-2.09 1.984,-2.847 3.55,-2.847c0.586,0 1.294,0.04 1.663,0.114c0,-0.637 -0.54,-1.728 -1.9,-1.728c-1.25,0 -1.566,0.405 -1.967,0.868zM8.716,8.19c-2.04,0 -2.304,0.87 -2.304,1.416c0,0.878 1.043,1.168 1.6,1.168c1.02,0 2.067,-0.282 2.232,-2.423c-0.50069,-0.11681 -1.01396,-0.1709 -1.528,-0.161"></path></g></g></svg>